<svg width="35" height="35" viewBox="0 0 35 35" fill="none" xmlns="http://www.w3.org/2000/svg">
<g clip-path="url(#clip0_2_80)">
<path d="M34.9834 17.8275C34.9834 16.3936 34.8643 15.3472 34.6066 14.2621H17.8487V20.7341H27.6852C27.4869 22.3425 26.416 24.7647 24.0362 26.3924L24.0028 26.609L29.3013 30.6197L29.6684 30.6555C33.0398 27.6132 34.9834 23.137 34.9834 17.8275Z" fill="#4285F4"/>
<path d="M17.8486 34.8798C22.6677 34.8798 26.7133 33.3295 29.6684 30.6554L24.0361 26.3923C22.5289 27.4193 20.506 28.1362 17.8486 28.1362C13.1287 28.1362 9.1227 25.0941 7.69468 20.8891L7.48536 20.9065L1.97587 25.0727L1.90382 25.2684C4.8389 30.9654 10.8678 34.8798 17.8486 34.8798Z" fill="#34A853"/>
<path d="M7.6947 20.8892C7.3179 19.8041 7.09984 18.6414 7.09984 17.44C7.09984 16.2385 7.3179 15.0759 7.67488 13.9908L7.66489 13.7597L2.08636 9.52653L1.90384 9.61136C0.694152 11.9755 3.12609e-05 14.6303 3.12609e-05 17.44C3.12609e-05 20.2498 0.694152 22.9044 1.90384 25.2685L7.6947 20.8892Z" fill="#FBBC05"/>
<path d="M17.8486 6.74338C21.2002 6.74338 23.4609 8.15794 24.7501 9.34006L29.7873 4.53437C26.6937 1.72462 22.6677 0 17.8486 0C10.8678 0 4.8389 3.91426 1.90382 9.61124L7.67485 13.9906C9.1227 9.78571 13.1287 6.74338 17.8486 6.74338Z" fill="#EB4335"/>
</g>
<defs>
<clipPath id="clip0_2_80">
<rect width="34.1678" height="34.1678" fill="white" transform="scale(1.02436)"/>
</clipPath>
</defs>
</svg>
