<svg width="45" height="45" viewBox="0 0 45 45" fill="none" xmlns="http://www.w3.org/2000/svg">
<path d="M33.8437 39.9187C33.6703 40.0925 33.4642 40.2304 33.2374 40.3245C33.0106 40.4186 32.7674 40.467 32.5219 40.467C32.2763 40.467 32.0332 40.4186 31.8063 40.3245C31.5795 40.2304 31.3735 40.0925 31.2 39.9187L27.225 35.9437C27.0514 35.7701 26.9137 35.564 26.8198 35.3372C26.7258 35.1104 26.6775 34.8673 26.6775 34.6218C26.6775 34.3763 26.7258 34.1332 26.8198 33.9064C26.9137 33.6796 27.0514 33.4735 27.225 33.3C27.5756 32.9494 28.0511 32.7524 28.5469 32.7524C28.7924 32.7524 29.0355 32.8008 29.2623 32.8947C29.4891 32.9887 29.6952 33.1264 29.8688 33.3L32.5125 35.9437L39.15 29.3062C39.3236 29.1326 39.5297 28.9949 39.7565 28.901C39.9833 28.807 40.2264 28.7587 40.4719 28.7587C40.7174 28.7587 40.9605 28.807 41.1873 28.901C41.4141 28.9949 41.6202 29.1326 41.7938 29.3062C41.9673 29.4798 42.105 29.6859 42.199 29.9127C42.2929 30.1395 42.3413 30.3826 42.3413 30.6281C42.3413 30.8736 42.2929 31.1167 42.199 31.3435C42.105 31.5703 41.9673 31.7764 41.7938 31.95L33.8437 39.9187ZM22.65 37.5H7.50001C5.43751 37.5 3.75002 35.8125 3.75002 33.75V11.25C3.75002 9.18747 5.43751 7.49997 7.50001 7.49997H37.5C39.5625 7.49997 41.25 9.18747 41.25 11.25V23.775C39.2503 22.8237 37.0424 22.3942 34.8319 22.5265C32.6215 22.6588 30.4805 23.3486 28.6086 24.5317C26.7367 25.7147 25.1949 27.3524 24.1267 29.2922C23.0586 31.2319 22.4989 33.4106 22.5 35.625C22.5 36.2625 22.5563 36.8812 22.65 37.5ZM21.5063 23.7562C22.1063 24.1312 22.8938 24.1312 23.4938 23.7562L36.75 15.4687C36.938 15.3632 37.1027 15.2206 37.234 15.0496C37.3653 14.8786 37.4605 14.6827 37.5139 14.4738C37.5673 14.2649 37.5778 14.0473 37.5447 13.8343C37.5116 13.6212 37.4356 13.4171 37.3213 13.2343C37.2071 13.0514 37.0569 12.8937 36.8799 12.7706C36.7029 12.6475 36.5027 12.5615 36.2916 12.518C36.0804 12.4745 35.8626 12.4743 35.6513 12.5174C35.4401 12.5605 35.2398 12.646 35.0625 12.7687L22.5 20.625L9.93751 12.7687C9.76026 12.646 9.55994 12.5605 9.34868 12.5174C9.13742 12.4743 8.91961 12.4745 8.70844 12.518C8.49727 12.5615 8.29713 12.6475 8.12013 12.7706C7.94312 12.8937 7.79294 13.0514 7.67867 13.2343C7.56439 13.4171 7.48841 13.6212 7.45531 13.8343C7.42221 14.0473 7.43268 14.2649 7.48609 14.4738C7.53951 14.6827 7.63475 14.8786 7.76605 15.0496C7.89736 15.2206 8.062 15.3632 8.25001 15.4687L21.5063 23.7562Z" fill="#222222"/>
</svg>
