<svg width="45" height="45" viewBox="0 0 45 45" fill="none" xmlns="http://www.w3.org/2000/svg">
<path d="M33.75 15H37.5C37.9973 15 38.4742 15.1975 38.8258 15.5492C39.1775 15.9008 39.375 16.3777 39.375 16.875V39.375C39.375 39.8723 39.1775 40.3492 38.8258 40.7008C38.4742 41.0524 37.9973 41.25 37.5 41.25H7.50002C7.00274 41.25 6.52583 41.0524 6.1742 40.7008C5.82257 40.3492 5.62502 39.8723 5.62502 39.375V16.875C5.62502 16.3777 5.82257 15.9008 6.1742 15.5492C6.52583 15.1975 7.00274 15 7.50002 15H11.25V13.125C11.25 10.1413 12.4353 7.27983 14.5451 5.17005C16.6549 3.06027 19.5163 1.875 22.5 1.875C25.4837 1.875 28.3452 3.06027 30.455 5.17005C32.5647 7.27983 33.75 10.1413 33.75 13.125V15ZM30 15V13.125C30 11.1359 29.2098 9.22822 27.8033 7.8217C26.3968 6.41518 24.4891 5.625 22.5 5.625C20.5109 5.625 18.6032 6.41518 17.1967 7.8217C15.7902 9.22822 15 11.1359 15 13.125V15H30ZM20.625 26.25V30H24.375V26.25H20.625ZM13.125 26.25V30H16.875V26.25H13.125ZM28.125 26.25V30H31.875V26.25H28.125Z" fill="#222222"/>
</svg>
